<?xml version="1.0" encoding="UTF-8"?>
<svg width="32px" height="32px" viewBox="0 0 32 32" version="1.1" xmlns="http://www.w3.org/2000/svg" xmlns:xlink="http://www.w3.org/1999/xlink">
    <!-- Generator: Sketch 53.2 (72643) - https://sketchapp.com -->
    <title>Slice 1</title>
    <desc>Created with Sketch.</desc>
    <g id="Page-1" stroke="none" stroke-width="1" fill="none" fill-rule="evenodd">
        <rect id="Rectangle" fill="#81B240" fill-rule="nonzero" x="0" y="0" width="32" height="32" rx="5"></rect>
        <text id="Cart" font-family="Helvetica" font-size="8" font-weight="normal" fill="#FFFFFF">
            <tspan x="8.94335938" y="24">Cart</tspan>
        </text>
        <g id="Group-2" transform="translate(3.000000, 4.000000)" fill="#FFFFFF" fill-rule="nonzero">
            <path d="M0.189608913,0.83862714 C0.34726657,0.621350575 0.583753057,0.506994487 0.899068372,0.48412327 C1.47339269,0.438380835 1.79996927,0.712835444 1.8787981,1.3074871 C2.2278972,3.69752932 2.61078008,5.72163207 3.01618548,7.37979533 L5.4824017,2.61114649 C5.70762693,2.17659336 5.98915846,1.94788119 6.3269963,1.92500997 C6.82249179,1.89070314 7.12654584,2.21090019 7.25041972,2.8856011 C7.53195125,4.40653706 7.89231161,5.69876085 8.32023954,6.79657929 C8.61303233,3.89193467 9.10852783,1.79921827 9.80672602,0.506994487 C9.97564496,0.186797443 10.2233927,0.0266989208 10.5499693,0.00382770336 C10.8089783,-0.0190435141 11.0454648,0.061005747 11.2594288,0.232539878 C11.4733927,0.404074009 11.5860053,0.621350575 11.6085279,0.884369575 C11.6197891,1.09021053 11.5860053,1.26174466 11.4959153,1.43327879 C11.0567261,2.25664262 10.6963657,3.64035128 10.4035729,5.56153354 C10.1220414,7.42553777 10.02069,8.87786007 10.0882576,9.91850047 C10.1107801,10.2043907 10.0657351,10.4559741 9.95312246,10.6732507 C9.81798729,10.9248341 9.61528458,11.0620614 9.35627557,11.0849326 C9.06348278,11.1078038 8.75942873,10.9705765 8.46663593,10.6618151 C7.41933864,9.57543221 6.5860053,7.95157577 5.9778972,5.79024572 C5.24591521,7.25400363 4.70537467,8.35182207 4.35627557,9.08370103 C3.69186116,10.3759249 3.1287981,11.0391902 2.65582512,11.073497 C2.35177107,11.0963682 2.09276206,10.8333492 1.86753684,10.28444 C1.29321251,8.7863752 0.673843147,5.8931662 0.00942873234,1.60481292 C-0.0243550515,1.3074871 0.0319512548,1.0444681 0.189608913,0.83862714 Z" id="Shape"></path>
            <path d="M25.9346847,3.39514427 C25.5292793,2.67470092 24.9324324,2.24014779 24.1328829,2.06861366 C23.9189189,2.02287122 23.7162162,2 23.5247747,2 C22.4436937,2 21.5653153,2.57178044 20.8783784,3.71534131 C20.2927928,4.68736806 20,5.76231528 20,6.94018297 C20,7.82072485 20.1801802,8.57547502 20.5405405,9.2044335 C20.9459459,9.92487685 21.5427928,10.35943 22.3423423,10.5309641 C22.5563063,10.5767065 22.759009,10.5995778 22.9504504,10.5995778 C24.0427928,10.5995778 24.9211711,10.0277973 25.5968468,8.88423646 C26.1824324,7.90077411 26.4752252,6.82582689 26.4752252,5.64795919 C26.4752252,4.75598171 26.295045,4.01266714 25.9346847,3.39514427 L25.9346847,3.39514427 Z M24.5157657,6.56280789 C24.3581081,7.31755806 24.0765766,7.87790289 23.6599099,8.25527798 C23.3333333,8.5526038 23.0292793,8.6783955 22.7477477,8.62121746 C22.4774775,8.56403941 22.2522522,8.32389163 22.0833333,7.87790289 C21.9481982,7.52339902 21.8806306,7.16889515 21.8806306,6.8372625 C21.8806306,6.55137228 21.9031531,6.26548206 21.9594594,6.00246306 C22.0608108,5.5336031 22.2522522,5.07617875 22.5563063,4.64162562 C22.9279279,4.08128079 23.322072,3.85256862 23.7274775,3.93261788 C23.9977477,3.98979592 24.2229729,4.22994371 24.3918919,4.67593245 C24.527027,5.03043632 24.5945946,5.38494019 24.5945946,5.71657284 C24.5945946,6.01389867 24.5608108,6.29978889 24.5157657,6.56280789 L24.5157657,6.56280789 Z" id="Shape"></path>
            <path d="M17.9346846,3.39514427 C17.5292792,2.67470092 16.9211711,2.24014779 16.1328828,2.06861366 C15.9189189,2.02287122 15.7162162,2 15.5247747,2 C14.4436937,2 13.5653153,2.57178044 12.8783783,3.71534131 C12.2927928,4.68736806 12,5.76231528 12,6.94018297 C12,7.82072485 12.1801801,8.57547502 12.5405405,9.2044335 C12.9459459,9.92487685 13.5427928,10.35943 14.3423423,10.5309641 C14.5563063,10.5767065 14.759009,10.5995778 14.9504504,10.5995778 C16.0427928,10.5995778 16.9211711,10.0277973 17.5968468,8.88423646 C18.1824324,7.90077411 18.4752252,6.82582689 18.4752252,5.64795919 C18.4752252,4.75598171 18.295045,4.01266714 17.9346846,3.39514427 L17.9346846,3.39514427 Z M16.5157657,6.56280789 C16.3581081,7.31755806 16.0765765,7.87790289 15.6599099,8.25527798 C15.3333333,8.5526038 15.0292792,8.6783955 14.7477477,8.62121746 C14.4774774,8.56403941 14.2522522,8.32389163 14.0833333,7.87790289 C13.9481982,7.52339902 13.8806306,7.16889515 13.8806306,6.8372625 C13.8806306,6.55137228 13.9031531,6.26548206 13.9594594,6.00246306 C14.0608108,5.5336031 14.2522522,5.07617875 14.5563063,4.64162562 C14.9279279,4.08128079 15.322072,3.85256862 15.7274774,3.93261788 C15.9977477,3.98979592 16.2229729,4.22994371 16.3918919,4.67593245 C16.527027,5.03043632 16.5945946,5.38494019 16.5945946,5.71657284 C16.5945946,6.01389867 16.572072,6.29978889 16.5157657,6.56280789 L16.5157657,6.56280789 Z" id="Shape"></path>
        </g>
    </g>
</svg>